<svg width="1200" height="800" viewBox="0 0 1200 800" fill="none" xmlns="http://www.w3.org/2000/svg">
<mask id="mask0_201_3" style="mask-type:luminance" maskUnits="userSpaceOnUse" x="-42" y="-28" width="1283" height="855">
<path d="M1241 -28H-42V827H1241V-28Z" fill="white"/>
</mask>
<g mask="url(#mask0_201_3)">
<path d="M1241 -28H-42V827H1241V-28Z" fill="#D8F2F2"/>
</g>
<mask id="mask1_201_3" style="mask-type:luminance" maskUnits="userSpaceOnUse" x="-42" y="-28" width="1283" height="855">
<path d="M1241 -28H-42V827H1241V-28Z" fill="white"/>
</mask>
<g mask="url(#mask1_201_3)">
<path d="M-184.306 246.241C-133.2 187.674 -46.7044 175.917 21.5084 218.133C75.3944 251.478 115.809 313.145 171.726 340.719C253.304 380.797 339.906 337.192 413.893 293.159C487.879 249.127 572.771 203.277 655.417 239.401C687.813 253.616 716.146 279.266 746.724 298.717C777.302 318.275 813.547 331.848 844.339 319.13C876.842 305.664 894.59 267.189 917.363 237.584C960.878 180.727 1030.16 152.726 1098.05 164.589C1165.94 176.452 1230.84 227.859 1267.19 298.717" stroke="#BFE0E0" stroke-miterlimit="10"/>
<path d="M-181.954 267.83C-140.791 218.667 -75.1442 200.713 -15.0571 218.668C-2.54781 222.408 9.7476 227.645 21.6153 234.485C56.3633 254.684 86.0861 286.747 117.626 314.534C135.161 330.138 153.337 344.246 173.544 354.078C178.89 356.643 184.236 358.887 189.581 360.811C219.518 371.499 249.989 371.819 279.926 365.3C311.253 358.46 342.152 344.566 371.874 328.856C386.736 321.054 401.276 312.718 415.496 304.595C465.854 275.525 521.451 246.776 577.582 241.539C604.525 239.081 631.361 241.646 657.876 252.333C690.058 265.265 718.177 288.884 748.328 306.626C754.957 310.473 761.693 314.107 768.749 317.206C793.661 328.428 820.711 333.558 844.66 323.191C877.056 309.191 895.338 271.25 918.539 242.18C921.64 238.333 924.847 234.485 928.269 230.958C972.639 182.971 1037.22 160.848 1100.51 172.07C1106.71 173.139 1112.91 174.528 1119.01 176.345C1180.27 193.445 1237.15 241.539 1270.72 305.664" stroke="#BFE0E0" stroke-miterlimit="10"/>
<path d="M-179.602 289.526C-139.508 239.615 -74.9304 220.271 -15.0571 236.302C-2.54781 239.615 9.74761 244.531 21.6154 250.944C56.684 269.967 86.9414 300.961 118.803 328.428C136.551 343.818 154.834 357.926 175.041 367.651C180.387 370.216 185.732 372.461 191.078 374.384C221.229 385.072 251.7 385.392 281.53 378.232C312.749 370.857 343.114 356.322 372.944 340.505C387.805 332.596 402.453 324.367 416.779 316.458C467.458 288.029 523.375 261.311 579.72 256.287C606.877 253.829 633.713 255.967 660.015 265.692C692.09 277.342 719.888 298.931 749.504 314.855C756.026 318.382 762.655 321.588 769.604 324.367C794.088 334.306 820.711 338.474 844.446 327.787C876.628 313.252 895.552 275.846 919.181 247.31C922.388 243.462 925.703 239.829 929.017 236.302C974.136 189.491 1038.82 168.65 1102.33 179.979C1108.53 181.047 1114.73 182.544 1120.93 184.254C1182.41 201.354 1239.61 249.02 1273.82 313.038" stroke="#BFE0E0" stroke-miterlimit="10"/>
<path d="M-177.143 311.114C-138.225 260.456 -74.6096 239.722 -15.057 253.829C-2.54778 256.822 9.74763 261.204 21.7223 267.296C57.0048 285.144 87.9037 315.069 120.193 342.215C138.155 357.391 156.544 371.392 176.858 381.117C182.204 383.682 187.55 385.927 193.003 387.851C223.26 398.538 253.838 398.752 283.454 391.057C314.46 383.148 344.504 367.972 374.334 351.941C389.302 343.925 403.949 335.802 418.383 328.107C469.489 300.427 525.727 275.632 582.179 270.822C609.55 268.471 636.386 270.181 662.474 278.838C694.335 289.312 721.813 308.87 751.108 322.977C757.523 326.077 764.045 328.962 770.78 331.314C794.837 339.971 821.031 343.07 844.66 332.062C876.735 316.886 896.087 280.121 920.25 252.226C923.457 248.486 926.879 244.852 930.3 241.432C976.167 195.689 1040.96 176.131 1104.57 187.567C1110.78 188.742 1117.08 190.132 1123.18 191.842C1184.98 208.835 1242.39 256.287 1277.14 320.199" stroke="#BFE0E0" stroke-miterlimit="10"/>
<path d="M-174.791 332.703C-136.942 281.296 -74.3958 259.173 -15.057 271.464C-2.54779 274.029 9.74765 278.09 21.8292 283.754C57.3256 300.534 88.866 329.283 121.582 356.109C139.651 371.071 158.255 384.965 178.676 394.797C184.022 397.362 189.475 399.607 194.82 401.531C225.185 412.218 255.87 412.325 285.379 403.989C316.278 395.439 345.894 379.621 375.723 363.59C390.692 355.467 405.446 347.559 419.987 339.971C471.414 312.931 528.08 290.167 584.639 285.464C612.223 283.22 638.952 284.396 665.04 291.984C696.687 301.175 723.951 318.702 752.712 330.993C759.02 333.665 765.435 336.123 772.064 338.154C795.692 345.421 821.566 347.772 844.981 336.337C876.949 320.733 896.835 284.396 921.426 257.036C924.74 253.402 928.162 249.875 931.69 246.455C978.413 201.995 1043.31 183.612 1107.03 195.155C1113.34 196.331 1119.54 197.72 1125.74 199.43C1187.76 216.316 1245.49 263.448 1280.77 327.252" stroke="#BFE0E0" stroke-miterlimit="10"/>
<path d="M-172.438 354.399C-135.659 302.244 -74.1819 278.624 -15.057 289.098C-2.54778 291.343 9.85457 294.976 21.8292 300.213C57.5394 315.817 89.7213 343.498 122.759 370.003C141.041 384.751 159.752 398.645 180.173 408.371C185.519 410.936 190.971 413.18 196.424 415.104C226.895 425.791 257.687 425.684 287.089 416.921C317.775 407.729 347.07 391.378 376.793 375.239C391.761 367.01 406.622 359.208 421.27 351.727C473.018 325.436 530.111 304.595 586.777 300.106C614.468 297.969 641.304 298.717 667.178 305.236C698.612 313.252 725.662 328.642 753.995 339.116C760.196 341.36 766.504 343.498 773.026 345.101C796.227 351.086 821.673 352.368 844.874 340.612C876.735 324.474 897.049 288.564 922.175 261.845C925.596 258.211 929.017 254.791 932.652 251.585C980.123 208.194 1045.13 191.094 1109.06 202.85C1115.37 204.026 1121.57 205.415 1127.78 207.125C1190 224.011 1248.06 270.823 1283.98 334.413" stroke="#BFE0E0" stroke-miterlimit="10"/>
<path d="M-170.086 375.987C-134.483 323.084 -73.8612 298.076 -15.1639 306.626C-2.76159 308.442 9.74767 311.649 21.8293 316.565C57.7532 330.993 90.5766 357.605 124.042 383.789C142.431 398.324 161.355 412.111 181.883 421.837C187.336 424.402 192.682 426.646 198.135 428.463C228.713 439.151 259.505 438.937 288.907 429.639C319.378 419.913 348.353 402.92 378.076 386.568C393.151 378.339 408.012 370.537 422.767 363.269C474.835 337.726 532.356 318.809 589.129 314.534C617.034 312.504 643.87 312.717 669.53 318.275C700.857 325.008 727.586 338.474 755.491 347.131C761.586 349.055 767.787 350.765 774.202 352.047C796.975 356.75 822.1 357.071 845.087 344.994C876.735 328.321 897.691 292.946 923.351 266.868C926.772 263.341 930.407 260.028 934.042 256.822C982.155 214.606 1047.48 198.789 1111.42 210.652C1117.73 211.827 1123.93 213.217 1130.23 214.927C1192.78 231.706 1251.05 278.197 1287.51 341.681" stroke="#BFE0E0" stroke-miterlimit="10"/>
<path d="M-167.734 397.576C-133.2 344.032 -73.6473 317.42 -15.1639 324.26C-2.76158 325.649 9.74765 328.535 21.9362 332.917C58.1809 346.169 91.5389 371.712 125.432 397.576C144.035 411.897 162.959 425.684 183.701 435.303C189.154 437.868 194.607 440.112 200.059 441.929C230.851 452.617 261.643 452.296 290.939 442.357C321.303 432.097 349.85 414.356 379.572 398.004C394.648 389.667 409.616 381.972 424.477 374.919C476.867 350.017 534.708 333.237 591.695 329.069C619.814 327.146 646.543 326.825 672.096 331.421C703.209 336.978 729.724 348.307 757.095 355.147C763.082 356.643 769.177 357.926 775.485 358.887C797.723 362.201 822.528 361.666 845.408 349.162C876.949 331.955 898.332 297.114 924.527 271.571C928.055 268.151 931.69 264.837 935.432 261.738C984.293 220.698 1049.73 206.056 1113.88 218.133C1120.18 219.309 1126.49 220.698 1132.69 222.408C1195.45 239.187 1254.04 285.357 1291.14 348.627" stroke="#BFE0E0" stroke-miterlimit="10"/>
<path d="M-165.382 419.272C-131.917 364.979 -73.3267 336.978 -15.164 341.894C-2.76171 342.963 9.74752 345.314 21.936 349.376C58.3946 361.452 92.3941 385.927 126.607 411.47C145.425 425.471 164.456 439.257 185.198 448.876C190.651 451.441 196.103 453.579 201.556 455.502C232.455 466.083 263.354 465.762 292.542 455.289C322.693 444.387 350.919 426.112 380.641 409.546C395.717 401.103 410.792 393.515 425.76 386.675C478.47 362.521 536.74 347.666 593.833 343.711C622.166 341.787 648.895 341.146 674.235 344.673C705.241 348.948 731.328 358.353 758.378 363.269C764.258 364.338 770.246 365.3 776.447 365.834C798.258 367.865 822.635 366.369 845.301 353.544C876.628 335.802 898.653 301.496 925.275 276.487C928.91 273.174 932.545 269.967 936.394 266.868C986.004 226.897 1051.54 213.644 1115.8 225.828C1122.11 227.004 1128.42 228.5 1134.72 230.103C1197.7 246.776 1256.61 292.732 1294.24 355.895" stroke="#BFE0E0" stroke-miterlimit="10"/>
<path d="M-163.03 440.861C-130.741 385.82 -73.1129 356.323 -15.271 359.422C-2.86862 360.063 9.64061 362.094 21.936 365.728C58.6084 376.629 93.2494 400.034 127.89 425.257C146.922 439.044 166.06 452.724 186.908 462.343C192.361 464.908 197.814 467.045 203.374 468.969C234.379 479.549 265.385 479.122 294.36 468.114C324.296 456.678 352.202 437.761 381.818 421.089C397 412.539 412.075 405.058 427.15 398.431C480.181 374.919 538.878 362.094 596.079 358.353C624.625 356.536 651.354 355.361 676.48 357.926C707.272 361.025 733.146 368.293 759.661 371.499C765.435 372.14 771.315 372.781 777.302 372.995C798.686 373.743 822.742 371.178 845.194 358.033C876.414 339.757 898.973 305.984 926.023 281.617C929.659 278.304 933.401 275.204 937.25 272.319C987.607 233.523 1053.36 221.446 1117.72 233.737C1124.03 234.913 1130.34 236.409 1136.65 238.012C1199.94 254.684 1259.07 300.213 1297.24 363.269" stroke="#BFE0E0" stroke-miterlimit="10"/>
<path d="M-160.678 462.449C-129.458 406.661 -72.7921 375.774 -15.2709 377.056C-2.86861 377.377 9.64063 378.98 22.043 382.186C59.0361 391.912 94.2117 414.249 129.173 439.151C148.312 452.724 167.663 466.404 188.619 475.916C194.072 478.374 199.632 480.618 205.084 482.542C236.197 493.123 267.31 492.588 296.177 480.939C326.007 468.862 353.485 449.304 383.101 432.524C398.283 423.868 413.572 416.493 428.647 410.081C481.998 387.316 541.123 376.415 598.431 372.781C627.191 371.071 653.92 369.361 678.832 370.858C709.41 372.674 734.963 377.911 761.158 379.301C766.824 379.621 772.598 379.728 778.478 379.621C799.434 379.087 823.063 375.56 845.408 362.094C876.521 343.284 899.508 309.939 927.093 286.213C930.835 283.006 934.684 280.014 938.533 277.128C989.639 239.508 1055.5 228.714 1120.08 241.111C1126.39 242.287 1132.8 243.783 1139.11 245.386C1202.62 261.952 1261.96 307.267 1300.87 370.109" stroke="#BFE0E0" stroke-miterlimit="10"/>
<path d="M-158.219 484.038C-128.068 427.501 -72.4713 396.614 -15.164 394.584C-2.76167 394.156 9.74757 395.652 22.1499 398.538C59.3569 407.088 95.174 428.356 130.563 452.937C149.915 466.297 169.374 479.87 190.33 489.489C195.783 491.947 201.342 494.191 206.902 496.115C238.122 506.696 269.341 506.054 298.102 493.871C327.718 481.259 354.875 461.06 384.491 444.174C399.673 435.517 415.069 428.142 430.251 421.944C483.923 399.927 543.476 390.95 600.89 387.53C629.864 385.927 656.486 383.789 681.398 384.217C711.869 384.858 737.102 388.064 762.869 387.53C768.428 387.423 774.095 387.209 779.868 386.675C800.289 384.858 823.597 380.369 845.729 366.476C876.628 347.131 900.257 314.321 928.269 291.129C932.011 288.029 935.967 285.037 939.923 282.258C991.777 245.707 1057.74 236.195 1122.43 248.806C1128.84 250.089 1135.15 251.478 1141.46 253.081C1205.18 269.54 1264.84 314.534 1304.29 377.27" stroke="#BFE0E0" stroke-miterlimit="10"/>
<path d="M-155.866 505.734C-126.892 448.449 -72.1506 414.569 -15.164 412.218C-2.76166 411.684 9.74759 412.539 22.2568 414.997C59.6777 422.371 96.1363 442.571 131.953 466.831C151.412 480.084 171.085 493.55 192.147 503.062C197.707 505.52 203.16 507.764 208.719 509.581C240.153 520.162 271.373 519.414 300.026 506.589C329.428 493.443 356.158 472.602 385.88 455.502C401.063 446.739 416.566 439.471 431.855 433.486C485.848 412.111 545.721 405.164 603.349 401.958C632.537 400.462 659.159 397.79 683.857 397.256C714.115 396.614 739.026 397.79 764.365 395.546C769.818 395.011 775.378 394.477 781.044 393.622C801.038 390.522 824.025 384.965 845.943 370.751C876.735 350.872 900.791 318.596 929.338 296.045C933.187 293.052 937.143 290.167 941.206 287.495C993.809 252.119 1059.99 243.89 1124.78 256.608C1131.2 257.891 1137.5 259.28 1143.81 260.99C1207.86 277.449 1267.73 322.122 1307.82 384.644" stroke="#BFE0E0" stroke-miterlimit="10"/>
<path d="M-153.514 527.322C-125.609 469.396 -71.9367 433.914 -15.2709 429.852C-2.86857 428.997 9.64068 429.318 22.2568 431.456C59.8915 437.654 96.9916 456.785 133.129 480.618C152.802 493.657 172.582 507.016 193.751 516.528C199.311 518.986 204.871 521.231 210.43 523.047C241.971 533.628 273.297 532.88 301.844 519.414C331.139 505.627 357.441 484.145 387.163 467.045C402.453 458.174 417.955 451.014 433.351 445.136C487.665 424.509 547.966 419.486 605.701 416.493C635.103 415.104 661.725 411.898 686.209 410.401C716.36 408.478 740.951 407.729 765.862 403.561C771.208 402.706 776.661 401.744 782.221 400.462C801.786 395.973 824.346 389.561 846.157 375.026C876.735 354.613 901.433 322.871 930.514 300.854C934.47 297.862 938.426 295.083 942.596 292.518C995.84 258.318 1062.24 251.264 1127.24 264.196C1133.66 265.479 1140.07 266.868 1146.38 268.578C1210.64 284.93 1270.83 329.283 1311.46 391.698" stroke="#BFE0E0" stroke-miterlimit="10"/>
<path d="M-151.162 548.911C-124.326 490.237 -71.616 453.258 -15.2709 447.38C-2.86857 446.097 9.74761 446.097 22.3638 447.807C60.3192 452.831 97.9539 470.892 134.519 494.405C154.406 507.23 174.185 520.482 195.462 529.994C201.022 532.452 206.581 534.697 212.141 536.514C243.788 547.094 275.115 546.239 303.555 532.239C332.636 517.917 358.617 495.794 388.233 478.481C403.522 469.503 419.131 462.449 434.634 456.785C489.269 436.799 549.997 433.807 607.839 431.028C637.455 429.746 663.971 426.112 688.348 423.547C718.284 420.447 742.554 417.669 767.145 411.577C772.384 410.294 777.73 408.905 783.076 407.302C802.214 401.531 824.346 394.156 845.943 379.194C876.414 358.139 901.539 327.039 931.155 305.664C935.111 302.778 939.281 300.106 943.451 297.541C997.444 264.41 1063.95 258.746 1129.06 271.784C1135.47 273.067 1141.89 274.563 1148.2 276.166C1212.67 292.518 1273.18 336.551 1314.34 398.859" stroke="#BFE0E0" stroke-miterlimit="10"/>
<path d="M-148.81 570.607C-123.15 511.184 -71.4021 472.709 -15.2709 465.014C-2.86856 463.304 9.74761 462.984 22.3638 464.266C60.533 468.114 98.8092 485.107 135.695 508.299C155.689 520.91 175.682 534.162 197.066 543.567C202.625 546.026 208.185 548.163 213.851 550.087C245.606 560.561 277.039 559.706 305.372 545.064C334.24 530.208 359.9 507.444 389.516 490.023C404.805 480.939 420.521 473.992 436.131 468.541C491.086 449.304 552.243 448.235 610.192 445.563C640.021 444.281 666.537 440.219 690.7 436.692C720.53 432.311 744.479 427.501 768.535 419.699C773.667 417.989 778.906 416.279 784.145 414.249C802.749 407.195 824.56 398.752 846.05 383.576C876.414 361.987 902.074 331.314 932.118 310.58C936.181 307.801 940.35 305.129 944.627 302.671C999.368 270.716 1066.08 266.334 1131.3 279.372C1137.72 280.655 1144.13 282.151 1150.55 283.754C1215.34 300.106 1276.18 343.925 1317.98 406.019" stroke="#BFE0E0" stroke-miterlimit="10"/>
<path d="M-146.458 592.196C-121.867 532.025 -71.0814 492.054 -15.3778 482.649C-3.0824 480.511 9.6407 479.763 22.3638 480.618C60.7469 483.29 99.6645 499.214 136.978 522.086C157.186 534.483 177.286 547.629 198.776 557.034C204.336 559.492 210.003 561.629 215.669 563.553C247.637 574.027 279.071 573.065 307.297 557.889C336.057 542.499 361.29 518.986 390.906 501.566C406.302 492.481 422.018 485.534 437.735 480.298C493.011 461.808 554.595 462.663 612.651 460.205C642.694 459.029 669.21 454.434 693.159 449.838C722.775 444.174 746.403 437.441 770.139 427.715C775.164 425.684 780.296 423.547 785.428 421.196C803.604 412.859 825.094 403.454 846.264 387.851C876.414 365.727 902.716 335.589 933.187 315.389C937.357 312.717 941.526 310.153 945.803 307.801C1001.29 276.914 1068.12 273.815 1133.44 287.067C1139.86 288.35 1146.38 289.846 1152.69 291.449C1217.69 307.587 1278.74 351.086 1321.08 413.073" stroke="#BFE0E0" stroke-miterlimit="10"/>
<path d="M-144.105 613.784C-120.584 552.866 -70.8676 511.398 -15.3778 500.176C-3.08239 497.718 9.64068 496.542 22.4707 496.97C61.1745 498.466 100.627 513.322 138.368 535.872C158.789 548.056 178.997 561.202 200.487 570.5C206.047 572.958 211.713 575.096 217.38 577.019C249.455 587.493 280.995 586.424 309.114 570.714C337.661 554.682 362.573 530.636 392.189 513.001C407.585 503.81 423.408 496.97 439.232 491.947C494.829 474.099 556.733 476.984 615.003 474.74C645.26 473.671 671.776 468.541 695.511 462.984C724.913 456.144 748.328 447.38 771.529 435.731C776.447 433.272 781.472 430.814 786.497 428.036C804.245 418.417 825.308 408.05 846.371 392.126C876.414 369.468 903.143 339.864 934.149 320.306C938.319 317.634 942.596 315.176 946.979 312.931C1003.11 283.22 1070.15 281.403 1135.69 294.762C1142.21 296.045 1148.62 297.541 1155.04 299.144C1220.26 315.282 1281.63 358.46 1324.61 420.234" stroke="#BFE0E0" stroke-miterlimit="10"/>
<path d="M-141.753 635.48C-119.408 573.813 -70.5468 530.742 -15.3778 517.811C-3.08238 514.925 9.64069 513.322 22.4707 513.429C61.3884 513.749 101.482 527.643 139.544 549.766C160.072 561.736 180.494 574.775 202.091 584.18C207.757 586.638 213.317 588.776 219.09 590.592C251.272 601.066 282.92 599.891 310.932 583.539C339.265 566.973 363.856 542.285 393.365 524.544C408.761 515.246 424.691 508.512 440.622 503.703C496.539 486.603 558.872 491.412 617.248 489.382C647.719 488.42 674.128 482.756 697.863 476.236C727.158 468.114 750.146 457.426 773.026 443.96C777.837 441.074 782.755 438.189 787.673 435.089C804.994 424.188 825.629 412.752 846.584 396.507C876.414 373.316 903.785 344.246 935.218 325.222C939.495 322.657 943.878 320.306 948.262 318.061C1005.14 289.419 1072.39 288.884 1138.04 302.457C1144.56 303.847 1150.98 305.236 1157.39 306.839C1222.82 322.871 1284.52 365.727 1328.03 427.394" stroke="#BFE0E0" stroke-miterlimit="10"/>
<path d="M-139.294 657.069C-118.018 594.654 -70.226 550.087 -15.3778 535.445C-3.08236 532.132 9.64072 530.208 22.5776 529.888C61.7091 529.033 102.444 541.857 140.934 563.66C161.676 575.416 182.204 588.348 203.908 597.753C209.575 600.211 215.241 602.349 220.908 604.166C253.197 614.639 284.951 613.357 312.856 596.471C341.082 579.371 365.246 553.934 394.755 536.086C410.257 526.681 426.188 520.055 442.332 515.459C498.678 499.001 561.331 505.841 619.814 504.024C650.499 503.169 676.908 497.077 700.429 489.489C729.511 480.084 752.284 467.473 774.736 452.083C779.441 448.876 784.252 445.563 789.063 442.143C805.849 429.959 826.27 417.562 846.905 400.996C876.628 377.27 904.426 348.734 936.394 330.245C940.778 327.787 945.162 325.436 949.652 323.298C1007.28 295.831 1074.64 296.579 1140.39 310.259C1146.91 311.649 1153.33 313.038 1159.85 314.641C1225.6 330.673 1287.51 373.209 1331.56 434.769" stroke="#BFE0E0" stroke-miterlimit="10"/>
<path d="M-136.942 678.658C-116.735 615.601 -69.9053 569.431 -15.3778 552.972C-3.08235 549.232 9.64074 546.881 22.6846 546.239C62.1368 544.209 103.407 555.965 142.324 577.447C163.173 588.989 183.808 601.921 205.619 611.219C211.286 613.677 216.952 615.815 222.726 617.632C255.121 628.106 286.983 626.716 314.674 609.189C342.686 591.448 366.529 565.477 396.038 547.522C411.54 538.01 427.578 531.491 443.829 527.109C500.495 511.398 563.576 520.162 622.166 518.452C652.958 517.704 679.474 511.077 702.781 502.527C731.756 491.84 754.208 477.305 776.126 460.098C780.724 456.464 785.428 452.831 790.025 448.983C806.384 435.517 826.377 422.157 846.905 405.164C876.414 380.797 904.854 352.902 937.357 335.054C941.74 332.703 946.231 330.459 950.828 328.428C1009.2 302.03 1076.67 304.061 1142.64 317.954C1149.16 319.344 1155.68 320.84 1162.1 322.336C1228.06 338.261 1290.29 380.476 1334.98 441.929" stroke="#BFE0E0" stroke-miterlimit="10"/>
<path d="M-134.59 700.353C-115.559 636.549 -69.6914 588.776 -15.3778 570.607C-3.08235 566.546 9.64075 563.767 22.6846 562.698C62.3507 559.492 104.155 570.179 143.5 591.341C164.563 602.669 185.305 615.494 207.223 624.792C212.889 627.251 218.556 629.388 224.329 631.205C256.939 641.679 288.8 640.182 316.385 622.121C344.29 603.845 367.705 577.233 397.214 559.064C412.717 549.446 428.861 543.033 445.219 538.758C502.206 523.796 565.714 534.483 624.412 532.987C655.417 532.346 681.933 525.185 705.027 515.566C733.787 503.703 756.026 487.137 777.516 468.007C782.007 464.052 786.604 459.991 791.095 455.716C807.025 440.967 826.591 426.539 847.012 409.332C876.414 384.431 905.282 356.964 938.319 339.757C942.809 337.406 947.3 335.268 952.004 333.344C1011.02 308.015 1078.81 311.435 1144.88 325.329C1151.4 326.718 1157.93 328.214 1164.45 329.711C1230.63 345.528 1293.18 387.53 1338.4 448.769" stroke="#BFE0E0" stroke-miterlimit="10"/>
<path d="M-132.238 721.942C-114.276 657.389 -69.3707 608.12 -15.3778 588.241C-3.08235 583.752 9.64074 580.546 22.7915 579.157C62.6714 574.668 105.117 584.394 144.89 605.234C166.06 616.349 187.015 629.174 209.04 638.366C214.707 640.717 220.48 642.961 226.254 644.778C258.97 655.145 290.938 653.756 318.416 635.053C346.107 616.243 369.095 588.883 398.604 570.714C414.213 561.095 430.358 554.683 446.823 550.621C504.13 536.3 567.96 549.018 626.871 547.736C658.09 547.094 684.499 539.506 707.486 528.926C736.033 515.78 757.951 497.291 779.12 476.236C783.504 471.854 787.994 467.366 792.378 462.877C807.881 446.846 827.019 431.456 847.226 413.821C876.414 388.385 905.923 361.452 939.388 344.78C943.879 342.536 948.583 340.505 953.18 338.581C1012.95 314.427 1080.84 319.023 1147.02 333.131C1153.54 334.52 1160.06 336.016 1166.59 337.512C1233.09 353.33 1295.85 394.904 1341.72 456.037" stroke="#BFE0E0" stroke-miterlimit="10"/>
<path d="M-129.886 743.531C-112.993 678.23 -69.157 627.357 -15.4848 605.769C-3.18937 600.852 9.64063 597.326 22.7914 595.509C62.992 589.844 105.973 598.608 146.066 619.021C167.45 629.923 188.512 642.641 210.537 651.832C216.204 654.183 221.977 656.321 227.751 658.244C260.574 668.611 292.649 667.115 320.02 647.771C347.604 628.426 370.164 600.425 399.673 582.042C415.282 572.317 431.534 566.011 448.106 562.164C505.734 548.591 569.991 563.233 629.009 562.164C660.442 561.629 686.851 553.507 709.624 541.964C738.064 527.536 759.661 507.123 780.296 484.252C784.573 479.442 788.956 474.633 793.233 469.717C808.308 452.403 827.019 435.944 847.119 418.096C876.2 392.126 906.244 365.727 940.136 349.696C944.734 347.559 949.438 345.528 954.142 343.711C1014.66 320.626 1082.66 326.611 1149.05 340.826C1155.57 342.215 1162.2 343.711 1168.72 345.314C1235.44 361.025 1298.52 402.386 1344.92 463.304" stroke="#BFE0E0" stroke-miterlimit="10"/>
<path d="M-127.533 765.226C-111.817 699.177 -68.9431 646.702 -15.4848 623.51C-3.18936 618.166 9.64064 614.212 22.7914 611.967C63.2059 605.127 106.828 612.822 147.349 632.808C168.946 643.496 190.116 656.107 212.248 665.298C217.914 667.649 223.688 669.787 229.568 671.604C262.499 681.971 294.68 680.367 321.944 660.489C349.315 640.503 371.554 611.967 401.063 593.478C416.672 583.646 433.031 577.447 449.71 573.813C507.658 560.881 572.343 577.554 631.468 576.699C663.115 576.271 689.524 567.614 712.083 555.11C740.309 539.399 761.692 517.062 781.9 492.267C786.069 487.137 790.346 481.901 794.516 476.557C809.163 457.961 827.553 440.54 847.44 422.264C876.307 395.759 906.885 369.896 941.312 354.399C946.017 352.261 950.721 350.444 955.532 348.734C1016.69 326.718 1085.01 333.986 1151.51 348.414C1158.14 349.803 1164.66 351.299 1171.18 352.902C1238.11 368.613 1301.51 409.653 1348.45 470.465" stroke="#BFE0E0" stroke-miterlimit="10"/>
<path d="M-125.181 786.815C-110.534 720.018 -68.6224 666.046 -15.4848 641.037C-3.29627 635.266 9.64066 630.991 22.8983 628.319C63.5267 620.304 107.79 626.93 148.739 646.595C170.443 657.069 191.827 669.68 214.065 678.871C219.839 681.223 225.612 683.36 231.386 685.177C264.423 695.544 296.712 693.834 323.762 673.421C350.919 652.901 372.837 623.617 402.346 605.127C418.062 595.188 434.421 589.096 451.206 585.676C509.476 573.492 574.588 592.089 633.82 591.447C665.681 591.127 691.983 582.042 714.542 568.469C742.554 551.583 763.724 527.216 783.397 500.497C787.459 494.939 791.522 489.382 795.585 483.717C809.698 463.839 827.767 445.456 847.44 426.86C876.2 399.714 907.313 374.491 942.168 359.529C946.872 357.498 951.683 355.681 956.602 354.078C1018.51 333.237 1086.93 341.787 1153.54 356.322C1160.17 357.712 1166.69 359.208 1173.32 360.811C1240.57 376.415 1304.19 417.134 1351.77 477.839" stroke="#BFE0E0" stroke-miterlimit="10"/>
<path d="M-122.829 808.404C-109.251 740.859 -68.4085 685.284 -15.5917 658.565C-3.40318 652.366 9.53375 647.664 22.8983 644.671C63.7405 635.48 108.645 641.037 149.915 660.382C171.833 670.749 193.217 683.146 215.562 692.337C221.336 694.689 227.109 696.826 232.99 698.643C266.241 709.01 298.529 707.3 325.472 686.139C352.522 665.084 374.013 635.159 403.415 616.456C419.131 606.41 435.597 600.425 452.489 597.219C511.08 585.783 576.62 606.303 635.958 605.769C668.033 605.555 694.335 595.936 716.681 581.401C744.586 563.233 765.435 536.941 784.68 508.406C788.636 502.527 792.591 496.542 796.547 490.451C810.233 469.289 827.874 449.838 847.44 430.921C875.986 403.241 907.634 378.446 943.023 364.231C947.834 362.307 952.753 360.598 957.671 358.994C1020.32 339.223 1088.86 349.055 1155.68 363.804C1162.31 365.3 1168.94 366.796 1175.46 368.292C1242.92 383.789 1306.86 424.295 1354.97 484.786" stroke="#BFE0E0" stroke-miterlimit="10"/>
<path d="M-120.37 830.099C-107.968 761.913 -68.0877 704.628 -15.4847 676.306C-3.29624 669.68 9.64067 664.657 23.1122 661.237C64.2751 650.763 109.715 655.359 151.412 674.383C173.437 684.536 195.034 696.826 217.487 706.017C223.26 708.369 229.034 710.506 234.914 712.323C268.272 722.69 300.668 720.873 327.504 699.178C354.447 677.589 375.509 647.022 404.912 628.212C420.628 618.166 437.2 612.181 454.2 609.189C513.111 598.394 578.972 620.945 638.524 620.624C670.813 620.518 697.008 610.258 719.247 594.761C746.938 575.203 767.573 546.988 786.39 516.635C790.239 510.329 794.195 503.917 797.937 497.504C811.302 475.061 828.408 454.648 847.76 435.41C876.093 407.195 908.382 382.934 944.306 369.254C949.224 367.438 954.143 365.727 959.168 364.231C1022.46 345.421 1091.32 356.75 1158.14 371.499C1164.77 372.995 1171.4 374.491 1177.92 375.987C1245.6 391.484 1309.85 431.563 1358.61 491.947" stroke="#BFE0E0" stroke-miterlimit="10"/>
<path d="M-118.018 851.688C-106.685 782.754 -67.8739 723.866 -15.4847 693.834C-3.29623 686.887 9.64068 681.329 23.1122 677.589C64.4889 665.833 110.57 669.573 152.695 688.169C174.934 698.109 196.638 710.399 219.197 719.484C224.971 721.835 230.851 723.972 236.732 725.789C270.197 736.156 302.699 734.232 329.428 711.896C356.158 689.772 376.899 658.458 406.302 639.541C422.018 629.388 438.697 623.617 455.804 620.624C515.036 610.578 581.324 635.052 640.984 634.946C673.486 634.946 699.681 624.258 721.706 607.692C749.183 586.959 769.604 556.713 787.887 524.437C791.629 517.704 795.478 510.971 799.113 504.131C811.943 480.404 828.729 458.922 847.974 439.364C876.093 410.508 908.917 386.889 945.375 373.743C950.293 371.926 955.319 370.43 960.451 369.041C1024.49 351.406 1093.45 363.911 1160.49 378.873C1167.12 380.369 1173.75 381.866 1180.38 383.362C1248.27 398.752 1312.85 438.616 1362.14 498.787" stroke="#BFE0E0" stroke-miterlimit="10"/>
<path d="M-115.666 873.277C-105.509 803.594 -67.6601 743.21 -15.4847 711.361C-3.29624 703.987 9.64068 698.109 23.2191 693.941C64.8097 681.009 111.532 683.681 153.978 701.956C176.431 711.682 198.242 723.866 220.801 732.95C226.575 735.301 232.455 737.439 238.335 739.256C271.907 749.516 304.517 747.592 331.139 724.721C357.654 701.956 378.076 670.108 407.478 651.084C423.301 640.824 439.98 635.159 457.194 632.381C516.746 622.976 583.462 649.587 643.336 649.587C676.052 649.587 702.247 638.473 724.058 620.945C751.322 598.929 771.529 566.759 789.384 532.666C793.126 525.612 796.654 518.452 800.289 511.291C812.692 486.283 829.05 463.839 848.188 443.96C876.2 414.569 909.558 391.484 946.445 378.98C951.47 377.27 956.495 375.774 961.627 374.491C1026.42 357.926 1095.49 371.819 1162.74 386.889C1169.37 388.385 1175.99 389.881 1182.62 391.377C1250.84 406.767 1315.63 446.204 1365.56 506.268" stroke="#BFE0E0" stroke-miterlimit="10"/>
<path d="M-113.313 894.972C-104.226 824.542 -67.5531 762.448 -15.5917 729.103C-3.51007 721.301 9.53377 714.995 23.2191 710.506C65.0235 696.399 112.388 698.002 155.261 715.957C177.821 725.469 199.845 737.652 222.512 746.63C228.285 748.981 234.166 751.119 240.153 752.829C273.939 763.089 306.441 761.058 332.957 737.653C359.365 714.354 379.359 681.864 408.654 662.626C424.477 652.259 441.263 646.702 458.584 644.137C518.457 635.48 585.601 664.016 645.581 664.229C678.511 664.336 704.706 652.687 726.303 634.197C753.46 610.899 773.346 576.806 790.667 540.789C794.302 533.308 797.723 525.826 801.252 518.238C813.226 491.947 829.264 468.541 848.081 448.235C875.986 418.31 909.879 395.759 947.193 383.789C952.325 382.186 957.457 380.797 962.589 379.514C1028.13 364.124 1097.41 379.194 1164.66 394.477C1171.29 395.973 1178.03 397.469 1184.65 398.966C1253.08 414.249 1318.19 453.472 1368.66 513.429" stroke="#BFE0E0" stroke-miterlimit="10"/>
<path d="M-110.961 916.561C-102.943 845.382 -67.2324 781.792 -15.5916 746.63C33.6969 713.071 99.13 706.338 156.544 729.637C185.091 741.286 212.675 757.424 241.864 766.295C275.756 776.555 308.366 774.417 334.774 750.371C360.969 726.537 380.642 693.299 409.937 674.062C480.609 627.678 570.419 678.23 647.933 678.764C731.221 679.299 770.46 601.707 802.428 525.078C833.327 451.121 893.735 399.714 963.872 384.537C1036.68 368.827 1113.34 390.202 1187.01 406.554C1255.65 421.837 1320.97 460.739 1372.08 520.482" stroke="#BFE0E0" stroke-miterlimit="10"/>
</g>
<mask id="mask2_201_3" style="mask-type:luminance" maskUnits="userSpaceOnUse" x="-42" y="-28" width="1283" height="855">
<path d="M1241 -28H-42V827H1241V-28Z" fill="white"/>
</mask>
<g mask="url(#mask2_201_3)">
<path d="M-208.469 391.591C-149.451 333.024 -62.528 309.725 18.4079 325.329C61.0677 333.558 97.5262 350.124 128.96 379.087C161.89 409.439 205.512 428.249 250.31 430.387C295.964 432.631 341.189 418.524 381.604 397.256C445.968 363.376 496.325 307.16 575.23 309.618C607.519 310.58 640.556 324.901 658.411 351.834C677.763 381.224 673.166 425.791 644.94 448.128C614.468 472.175 566.89 454.968 532.249 454.434C493.546 453.793 457.087 467.152 431.748 499.856C403.522 536.193 403.415 583.432 384.811 626.503C371.768 656.855 350.919 683.574 323.12 694.368C287.517 708.262 252.983 693.193 218.663 675.772C185.091 658.779 145.104 648.412 109.394 648.626C50.2691 649.053 -3.72383 675.238 -44.1383 721.942C-57.7167 737.653 -69.5845 755.394 -79.3139 774.631C-85.1943 786.281 -105.508 821.122 -102.087 835.657C-124.54 740.538 -147.42 645.313 -170.3 550.194C-173.721 536.193 -216.488 399.607 -208.469 391.591Z" fill="#263E4D"/>
<path d="M1440.83 348.307L1439.01 348.734C1416.88 406.874 1353.16 425.684 1297.02 416.921C1240.79 408.264 1186.9 378.98 1130.98 366.155C1047.91 347.131 964.086 367.224 896.621 417.455C812.478 480.191 762.013 577.661 677.121 640.717C643.977 665.405 602.707 687.635 562.293 697.254C506.376 710.506 450.244 690.734 436.238 630.671C417.421 550.301 491.835 501.993 561.545 496.97C622.487 492.588 684.926 486.817 714.222 424.616C743.624 362.094 756.133 295.297 803.818 242.501C845.515 196.224 902.395 165.871 965.155 162.879C1011.24 160.634 1053.47 174.742 1098.37 183.078C1179.2 198.147 1258.53 211.079 1335.19 174.528C1366.84 159.459 1395.49 138.618 1419.87 113.502C1432.17 100.891 1443.39 87.2112 1453.44 72.6762C1460.82 61.8819 1470.55 32.1706 1480.49 25.5444C1478.78 26.72 1480.17 25.865 1478.46 26.9338C1479.21 27.4681 1479.85 26.6131 1480.71 27.1475L1440.83 348.307Z" fill="#263E4D"/>
</g>
<mask id="mask3_201_3" style="mask-type:luminance" maskUnits="userSpaceOnUse" x="-42" y="-28" width="1283" height="855">
<path d="M1241 -28H-42V827H1241V-28Z" fill="white"/>
</mask>
<g mask="url(#mask3_201_3)">
<path d="M-61.245 634.839C-39.2202 573.813 26.6405 531.811 91.2182 537.476C137.192 541.537 181.242 566.973 227.002 560.668C282.706 553.079 319.485 503.81 356.906 467.152C403.842 421.196 449.71 401.958 515.464 421.623C564.218 436.158 604.418 469.61 656.914 469.717C753.46 469.931 800.717 368.934 831.616 292.732C862.729 215.996 893.521 134.771 972.318 95.4407C1036.9 63.1644 1101.37 66.5844 1168.51 87.1044C1200.8 96.9369 1232.45 103.563 1259.18 126.541" stroke="#0D8EFF" stroke-miterlimit="10"/>
<path d="M1262.17 130.175C1234.8 107.518 1202.62 100.571 1169.9 90.7381C1145.84 83.4706 1122.11 78.4475 1098.59 76.31C1055.5 72.3556 1013.05 78.5544 970.822 99.7156C957.778 106.342 945.91 114.037 935.218 122.694C880.798 166.94 855.565 235.447 828.729 300.213C796.761 377.484 746.297 477.305 648.789 476.129C596.186 475.595 555.771 442.571 507.231 427.394C463.93 414.035 429.182 417.028 396.893 433.059C380.535 441.181 364.925 452.724 348.994 467.045C311.146 501.245 273.618 547.522 218.021 554.469C204.229 556.179 190.651 555.217 177.072 552.972C145.425 547.629 114.205 535.231 82.1302 533.201C17.6595 528.926 -47.4528 571.569 -69.1569 632.808" stroke="#158CF9" stroke-miterlimit="10"/>
<path d="M1264.95 133.702C1236.94 111.365 1204.33 104.098 1171.08 94.265C1146.7 86.9975 1122.54 81.8675 1098.69 79.8369C1054.97 75.9894 1011.66 82.295 969.218 103.777C955.96 110.51 944.092 118.312 933.294 127.289C878.339 172.498 853.534 242.18 825.95 307.694C792.912 386.141 739.133 484.573 640.663 482.435C588.167 481.473 547.432 448.769 498.998 433.166C456.125 419.486 421.377 421.303 389.088 435.838C372.73 443.105 357.013 453.793 340.976 467.045C302.806 498.787 264.53 542.071 208.933 548.484C195.141 550.087 181.456 549.125 167.877 546.881C136.123 541.858 104.797 530.315 72.8285 528.926C8.46469 526.254 -55.8991 569.431 -77.2825 630.884" stroke="#1D8BF2" stroke-miterlimit="10"/>
<path d="M1267.73 137.229C1239.08 115.213 1206.04 107.731 1172.25 97.7919C1147.55 90.5244 1123.07 85.3944 1098.8 83.3638C1054.43 79.5163 1010.38 86.0357 967.507 107.945C954.143 114.785 942.061 122.801 931.155 131.885C875.666 178.055 851.289 249.02 822.956 315.069C788.742 394.691 731.863 491.519 632.43 488.741C579.934 487.351 538.985 454.968 490.659 438.83C448.213 424.723 413.572 425.684 381.283 438.616C364.925 445.136 349.101 454.861 333.064 467.045C294.467 496.329 255.549 536.514 199.845 542.392C186.053 543.781 172.368 542.819 158.683 540.789C126.821 535.979 95.3879 525.399 63.5267 524.758C-0.516342 523.475 -64.1318 567.294 -85.3013 628.961" stroke="#2589EC" stroke-miterlimit="10"/>
<path d="M1270.51 140.649C1241.21 118.953 1207.64 111.151 1173.54 101.212C1148.52 93.9444 1123.71 88.8144 1099.01 86.7838C1054 83.0432 1009.2 89.7763 966.01 111.899C952.539 118.846 940.243 126.969 929.231 136.267C873.1 183.292 849.257 255.539 820.176 322.336C784.893 403.027 724.806 498.466 624.411 494.939C571.915 493.016 530.646 461.06 482.533 444.494C440.408 429.959 405.874 429.959 373.585 441.288C357.227 447.059 341.403 455.823 325.152 466.938C286.127 493.657 246.568 530.956 190.864 536.193C177.072 537.476 163.28 536.514 149.595 534.59C117.627 530.101 86.0861 520.376 54.3319 520.483C-9.49739 520.589 -72.4713 565.049 -93.2131 626.93" stroke="#2D88E6" stroke-miterlimit="10"/>
<path d="M1273.4 144.176C1243.46 122.801 1209.46 114.678 1174.82 104.846C1149.48 97.5781 1124.25 92.4481 1099.23 90.4175C1053.58 86.6769 1007.92 93.6238 964.407 116.068C950.721 123.121 938.426 131.458 927.2 140.969C870.534 188.956 847.119 262.379 817.289 329.817C780.831 411.684 717.643 505.734 616.179 501.245C563.683 499.001 522.199 467.366 474.194 450.266C432.496 435.41 398.069 434.341 365.673 444.067C349.208 448.983 333.384 456.892 317.026 466.938C277.681 491.199 237.373 525.506 181.67 530.101C167.877 531.277 154.085 530.315 140.4 528.498C108.325 524.223 76.7844 515.352 44.9232 516.207C-18.7991 517.811 -80.9177 562.912 -101.446 625.006" stroke="#3586DF" stroke-miterlimit="10"/>
<path d="M1276.18 147.702C1245.6 126.648 1211.17 118.312 1175.99 108.372C1150.33 101.105 1124.78 95.975 1099.34 93.9444C1053.04 90.3106 1006.64 97.3644 962.696 120.129C948.904 127.289 936.394 135.733 925.061 145.458C867.754 194.407 844.874 269.112 814.189 337.085C776.661 420.127 710.159 512.787 607.84 507.444C555.343 504.772 513.646 473.457 465.747 455.823C424.477 440.647 390.05 438.509 357.761 446.632C341.296 450.8 325.366 457.747 308.901 466.724C269.021 488.527 228.178 519.841 172.475 523.902C158.576 524.864 144.89 523.902 131.098 522.192C98.9162 518.238 67.2689 510.222 35.5146 511.826C-27.9939 514.925 -89.364 560.561 -109.571 622.869" stroke="#3D85D9" stroke-miterlimit="10"/>
<path d="M1278.96 151.229C1247.74 130.496 1212.77 121.839 1177.28 111.899C1151.3 104.632 1125.42 99.5019 1099.55 97.4713C1052.61 93.8375 1005.46 101.105 961.199 124.297C947.3 131.564 934.577 140.221 923.137 150.054C865.295 199.964 842.842 275.846 811.409 344.566C772.705 428.677 703.102 519.948 599.714 513.856C547.325 510.757 505.306 479.87 457.515 461.701C416.566 446.204 382.352 442.998 349.956 449.518C333.491 452.831 317.454 458.923 300.882 466.831C260.574 486.176 219.091 514.391 163.387 517.918C149.488 518.773 135.695 517.811 121.903 516.208C89.6144 512.467 57.8601 505.413 26.2128 507.764C-37.0819 512.253 -97.8105 558.53 -117.697 621.052" stroke="#4583D3" stroke-miterlimit="10"/>
<path d="M1281.74 154.649C1249.87 134.343 1214.48 125.259 1178.45 115.319C1152.15 108.052 1125.85 102.922 1099.66 100.891C1051.97 97.3644 1004.07 104.846 959.488 128.251C945.375 135.626 932.652 144.389 920.998 154.543C862.515 205.308 840.597 282.472 808.415 351.834C768.642 437.12 695.832 527.002 591.481 519.948C539.092 516.421 496.86 485.855 449.175 467.259C408.654 451.334 374.44 447.166 342.152 452.083C325.579 454.648 309.542 459.778 292.97 466.618C252.235 483.397 210.109 508.726 154.406 511.612C140.507 512.36 126.714 511.398 112.815 509.902C80.4195 506.482 48.5584 500.283 17.018 503.276C-46.0629 509.261 -106.043 556.072 -125.609 618.914" stroke="#4D81CC" stroke-miterlimit="10"/>
<path d="M1284.51 158.176C1252.01 138.191 1216.2 128.893 1179.63 118.846C1153.01 111.579 1126.39 106.449 1099.76 104.525C1051.44 100.998 1002.79 108.693 957.778 132.419C943.558 139.901 930.621 148.878 918.967 159.138C859.949 210.866 838.459 289.205 805.528 359.315C764.579 445.777 688.669 534.269 583.356 526.361C530.966 522.406 488.414 492.268 440.943 473.03C400.849 456.785 366.636 451.441 334.347 454.861C317.775 456.571 301.63 460.846 284.951 466.618C243.681 480.939 201.022 503.276 145.318 505.627C131.419 506.161 117.52 505.306 103.621 503.917C71.1179 500.711 39.1498 495.474 7.71627 499.214C-55.2577 506.696 -114.383 554.148 -133.628 617.098" stroke="#5580C6" stroke-miterlimit="10"/>
<path d="M1287.4 161.703C1254.26 142.038 1217.91 132.419 1180.91 122.48C1153.97 115.213 1127.03 109.976 1100.08 108.159C1051.12 104.739 1001.72 112.541 956.388 136.694C942.061 144.283 928.91 153.367 917.149 163.841C857.49 216.53 836.534 296.152 802.856 366.796C760.837 454.327 681.719 541.537 575.337 532.773C522.948 528.391 480.181 498.573 432.817 478.908C393.044 462.343 359.044 455.93 326.756 457.747C310.184 458.709 293.932 462.022 277.146 466.724C235.449 478.481 192.147 497.932 136.444 499.642C122.545 500.069 108.646 499.108 94.7464 497.825C62.1368 494.939 30.1688 490.451 -1.26474 495.046C-64.0248 503.917 -122.508 552.011 -141.432 615.174" stroke="#5D7EC0" stroke-miterlimit="10"/>
<path d="M1290.18 165.23C1256.4 145.886 1219.62 135.946 1182.2 126.007C1154.83 118.739 1127.56 113.503 1100.3 111.686C1050.69 108.266 1000.44 116.388 954.784 140.756C940.243 148.558 927.093 157.749 915.118 168.436C854.924 222.088 834.396 302.885 799.969 374.278C756.668 462.77 674.342 548.698 566.997 538.972C514.608 534.269 471.628 504.772 424.371 484.466C385.025 467.579 351.026 460.098 318.737 460.312C302.058 460.419 285.807 462.877 268.914 466.511C226.682 475.702 182.846 492.161 127.142 493.336C113.243 493.55 99.237 492.695 85.3378 491.519C52.6213 488.848 20.5463 485.321 -10.7803 490.558C-73.3265 500.924 -131.062 549.553 -149.665 613.036" stroke="#657DB9" stroke-miterlimit="10"/>
<path d="M1292.96 168.65C1258.53 149.626 1221.33 139.473 1183.37 129.427C1155.68 122.159 1128.1 116.923 1100.4 115.106C1050.15 111.793 999.154 120.022 953.073 144.71C938.426 152.619 925.061 161.917 912.98 172.818C852.251 227.324 832.151 309.404 796.868 381.438C752.605 471.213 667.071 555.858 558.765 545.171C506.483 540.041 463.181 510.971 416.031 490.13C377.113 472.923 343.221 464.373 310.825 462.984C294.146 462.236 277.681 463.732 260.788 466.404C218.021 473.03 173.651 486.603 117.947 487.138C104.048 487.244 90.042 486.389 76.0359 485.321C43.2125 482.969 11.0306 480.298 -20.1891 486.283C-82.5215 498.146 -139.508 547.415 -157.898 611.006" stroke="#6D7BB3" stroke-miterlimit="10"/>
<path d="M1295.74 172.177C1260.67 153.474 1222.93 143 1184.55 132.954C1156.54 125.686 1128.63 120.449 1100.51 118.633C1049.62 115.319 997.871 123.763 951.47 148.878C936.715 156.894 923.137 166.406 910.948 177.414C849.578 232.882 830.012 316.244 793.981 388.919C748.649 479.87 659.908 563.126 550.639 551.583C498.357 546.026 454.735 517.383 407.798 496.008C369.201 478.481 335.416 468.862 303.127 465.869C286.448 464.373 269.876 464.908 252.983 466.511C209.682 470.572 164.777 481.259 109.073 481.259C95.0671 481.259 81.1679 480.298 67.0549 479.443C34.1246 477.305 1.83577 475.595 -29.277 482.328C-91.5025 495.581 -147.741 545.491 -165.703 609.296" stroke="#757AAD" stroke-miterlimit="10"/>
<path d="M1298.52 175.704C1262.81 157.321 1224.64 146.527 1185.72 136.481C1157.39 129.106 1129.06 123.976 1100.62 122.159C1049.08 118.846 996.482 127.503 949.759 152.939C934.898 161.062 921.105 170.681 908.81 181.903C846.905 238.333 827.767 322.871 790.988 396.187C744.479 488.313 652.638 570.179 542.406 557.782C490.124 551.904 446.288 523.475 399.459 501.566C361.29 483.718 327.504 472.923 295.215 468.434C278.536 466.083 261.857 465.656 244.857 466.297C201.022 467.793 155.582 475.595 99.8784 474.954C85.8723 474.74 71.8662 473.885 57.7532 473.03C24.716 471.106 -7.67976 470.358 -38.6856 477.733C-100.697 492.481 -156.187 542.926 -173.935 607.051" stroke="#7E78A6" stroke-miterlimit="10"/>
<path d="M1301.41 179.231C1265.06 161.276 1226.35 150.161 1187.11 140.114C1158.46 132.74 1129.81 127.61 1100.94 125.793C1048.76 122.587 995.412 131.458 948.262 157.108C933.187 165.337 919.395 175.169 906.885 186.605C844.339 243.997 825.736 329.711 788.208 403.668C740.63 496.863 645.581 577.447 534.388 564.088C482.105 557.782 438.056 529.781 391.333 507.337C353.485 489.168 319.913 477.305 287.624 471.213C270.838 468.114 254.159 466.724 237.052 466.297C192.682 465.121 146.708 470.144 90.8974 468.862C76.8913 468.541 62.8852 467.686 48.7722 466.938C15.628 465.335 -16.7677 465.335 -47.7735 473.564C-109.571 489.809 -164.313 540.789 -181.74 605.128" stroke="#8676A0" stroke-miterlimit="10"/>
<path d="M1304.19 182.758C1267.19 165.123 1228.06 153.688 1188.29 143.641C1159.32 136.267 1130.34 131.137 1101.05 129.32C1048.23 126.114 994.129 135.198 946.658 161.169C931.476 169.505 917.47 179.444 904.961 191.094C841.88 249.341 823.704 336.444 785.428 411.043C736.674 505.413 638.418 584.714 526.262 570.393C473.98 563.767 429.716 536.086 383.101 513.001C345.68 494.512 312.108 481.58 279.819 473.885C263.033 469.931 246.247 467.579 229.034 466.19C184.129 462.343 137.62 464.48 81.8095 462.663C67.8034 462.236 53.6904 461.274 39.5774 460.739C6.32635 459.35 -26.1763 460.312 -57.0752 469.289C-118.766 486.924 -172.759 538.651 -189.866 603.097" stroke="#8E7599" stroke-miterlimit="10"/>
<path d="M1306.97 186.178C1269.33 168.864 1229.77 157.108 1189.47 147.061C1160.17 139.687 1130.77 134.557 1101.15 132.74C1047.69 129.641 992.739 138.832 944.948 165.23C929.659 173.673 915.439 183.826 902.822 195.583C839.1 254.791 821.459 343.07 782.327 418.31C732.504 513.856 631.04 591.875 517.816 576.592C465.64 569.538 420.949 542.285 374.547 518.666C337.447 499.856 303.982 485.748 271.693 476.557C254.908 471.748 237.908 468.541 220.801 466.083C175.468 459.564 128.318 458.923 72.5077 456.571C58.5016 455.93 44.3886 455.075 30.1687 454.648C-3.18931 453.579 -35.7989 455.396 -66.5909 465.014C-128.068 484.145 -181.312 536.407 -198.098 601.173" stroke="#967393" stroke-miterlimit="10"/>
<path d="M1309.75 189.704C1271.47 172.711 1231.38 160.741 1190.64 150.588C1161.03 143.214 1131.3 137.977 1101.37 136.374C1047.27 133.274 991.563 142.786 943.451 169.398C927.948 177.948 913.728 188.208 900.898 200.285C836.641 260.456 819.428 349.91 779.548 425.898C728.548 522.513 623.984 599.249 509.797 583.004C457.622 575.63 412.717 548.698 366.422 524.544C329.749 505.413 296.391 490.237 264.102 479.443C247.21 473.885 230.21 469.61 212.996 466.19C167.129 456.999 119.444 453.579 63.6337 450.586C49.6276 449.838 35.4077 448.983 21.1878 448.663C-12.2771 447.808 -44.9936 450.586 -75.6787 460.953C-136.942 481.58 -189.438 534.376 -206.01 599.356" stroke="#9E728D" stroke-miterlimit="10"/>
<path d="M1312.63 193.231C1273.72 176.559 1233.2 164.268 1192.03 154.115C1162.1 146.741 1132.05 141.504 1101.69 139.901C1046.84 136.908 990.387 146.527 941.954 173.459C926.344 182.116 911.91 192.59 898.974 204.774C834.075 265.906 817.396 356.643 776.768 433.166C724.592 530.956 616.714 606.41 501.671 589.203C449.496 581.401 404.27 554.896 358.189 530.101C321.944 510.65 288.586 494.298 256.297 482.008C239.405 475.595 222.298 470.358 204.977 465.976C158.576 454.113 110.356 447.914 54.5457 444.281C40.4327 443.319 26.3197 442.571 11.9929 442.25C-21.5789 441.716 -54.4023 445.349 -84.9805 456.464C-146.03 478.587 -197.778 532.025 -214.029 597.219" stroke="#A67086" stroke-miterlimit="10"/>
<path d="M1315.41 196.758C1275.85 180.406 1234.91 167.795 1193.21 157.642C1162.95 150.268 1132.48 145.031 1101.79 143.428C1046.3 140.435 989.104 150.268 940.243 177.628C924.527 186.391 909.879 196.972 896.835 209.369C831.402 271.357 815.151 363.376 773.774 440.647C720.53 539.613 609.55 613.784 493.439 595.616C441.263 587.493 395.824 561.202 349.956 535.979C314.032 516.208 280.888 498.787 248.599 485C231.707 477.733 214.493 471.534 197.066 466.19C150.236 451.548 101.375 442.571 45.5647 438.509C31.4517 437.441 17.3387 436.586 3.01188 436.479C-30.6669 436.158 -63.4903 440.647 -94.0685 452.51C-155.011 476.023 -206.01 530.101 -221.941 595.509" stroke="#AE6E80" stroke-miterlimit="10"/>
<path d="M1318.19 200.178C1277.99 184.147 1236.51 171.322 1194.38 161.169C1163.81 153.794 1133.01 148.558 1101.9 146.954C1045.77 144.069 987.821 154.008 938.64 181.689C922.709 190.666 908.061 201.354 894.804 213.965C828.836 276.914 813.013 370.109 770.887 448.021C716.574 548.056 602.28 620.945 485.313 601.814C433.138 593.264 387.484 567.401 341.724 541.644C306.228 521.551 273.083 503.062 240.795 487.672C223.902 479.656 206.581 472.389 189.047 465.976C141.79 448.663 92.2873 436.906 36.4768 432.204C22.3638 431.028 8.14392 430.173 -6.18291 430.173C-39.9686 430.173 -72.8989 435.517 -103.37 448.128C-164.206 473.03 -214.457 527.643 -230.066 593.264" stroke="#B66D7A" stroke-miterlimit="10"/>
<path d="M1320.97 203.705C1280.13 188.101 1238.22 174.849 1195.67 164.696C1164.77 157.321 1133.66 152.084 1102.12 150.481C1045.34 147.596 986.538 157.856 937.036 185.75C920.998 194.834 906.137 205.629 892.772 218.454C826.163 282.365 810.874 376.843 767.894 455.396C712.511 556.606 595.116 628.213 477.08 608.12C425.012 599.249 378.931 573.706 333.384 547.308C298.209 526.895 265.278 507.23 232.883 490.344C215.883 481.473 198.562 473.351 181.028 465.869C133.343 445.777 83.1994 431.349 27.3889 426.005C13.2759 424.616 -0.944053 423.868 -15.3778 423.974C-49.2704 424.188 -82.3076 430.494 -112.672 443.853C-173.187 470.251 -222.796 525.506 -238.085 591.341" stroke="#BE6B73" stroke-miterlimit="10"/>
<path d="M1323.75 207.232C1282.27 191.949 1239.93 178.376 1196.84 168.223C1165.62 160.848 1134.08 155.611 1102.22 154.008C1044.81 151.229 985.255 161.596 935.325 189.811C919.181 199.003 904.106 210.011 890.741 222.943C823.597 287.816 808.736 383.469 765.007 462.663C708.555 565.049 587.953 635.48 468.955 614.319C416.886 605.021 370.592 579.905 325.152 552.973C290.297 532.239 257.581 511.398 225.185 493.016C208.185 483.29 190.758 474.206 173.116 465.763C125.004 442.998 74.2184 425.791 18.4079 419.806C4.29494 418.31 -10.0319 417.455 -24.4656 417.669C-58.4651 418.203 -91.6093 425.364 -121.867 439.364C-182.382 467.366 -231.136 523.261 -246.104 589.31" stroke="#C66A6D" stroke-miterlimit="10"/>
<path d="M1326.64 210.759C1284.52 195.796 1241.64 182.009 1198.13 171.749C1166.59 164.375 1134.72 159.138 1102.44 157.535C1044.38 154.756 984.079 165.337 933.828 193.979C917.47 203.278 902.395 214.393 888.816 227.538C821.031 293.266 806.704 390.202 762.227 470.144C704.492 573.599 580.683 642.961 460.829 620.624C408.761 611.113 362.145 586.318 316.919 558.637C282.492 537.689 249.776 515.673 217.38 495.688C200.38 485.107 182.953 475.061 165.098 465.656C116.557 440.113 65.1305 420.127 9.31997 413.714C-4.79303 412.111 -19.1199 411.256 -33.6605 411.577C-67.7669 412.325 -101.018 420.448 -131.275 435.196C-191.47 464.587 -239.475 521.017 -254.23 587.279" stroke="#CE6867" stroke-miterlimit="10"/>
<path d="M1329.42 214.179C1286.65 199.537 1243.35 185.429 1199.3 175.169C1167.44 167.795 1135.26 162.558 1102.54 160.955C1043.85 158.283 982.689 169.078 932.118 197.934C915.653 207.339 900.364 218.668 886.678 232.027C818.358 298.717 804.459 396.935 759.234 477.412C700.429 582.043 573.412 650.015 452.49 626.823C400.421 616.884 353.485 592.516 308.473 564.301C274.366 543.033 241.864 519.948 209.468 498.359C192.468 487.031 174.934 475.916 156.972 465.549C108.004 437.334 55.9357 414.569 0.125201 407.516C-13.9878 405.699 -28.4215 404.951 -42.8553 405.378C-77.0686 406.447 -110.32 415.318 -140.577 430.921C-200.557 461.808 -247.921 518.879 -262.248 585.356" stroke="#D66760" stroke-miterlimit="10"/>
<path d="M1332.2 217.706C1257.36 193.018 1181.45 168.116 1102.76 164.589C1024.07 161.062 940.885 181.475 884.754 236.623C815.792 304.274 802.428 403.668 756.454 484.786C696.473 590.486 566.356 657.176 444.471 633.129C353.378 615.067 277.36 555.003 201.77 501.031C126.18 447.059 40.8604 395.653 -51.9433 399.179C-154.476 403.241 -249.098 483.076 -270.267 583.325" stroke="#DE655A" stroke-miterlimit="10"/>
<path d="M-264.494 582.043C-243.752 489.168 -159.181 415.104 -64.8801 403.561C-58.6789 402.813 -52.4778 402.279 -46.2766 402.172C42.6781 399.286 124.79 446.525 198.242 497.291C200.808 499.001 203.267 500.818 205.833 502.528C281.209 555.217 357.334 613.464 447.571 629.923C568.387 651.725 695.725 583.859 756.668 479.977C764.472 466.618 771.529 452.724 778.051 438.616C810.34 368.827 831.082 293.48 888.71 239.615C917.47 212.789 952.86 194.621 991.029 183.613C1027.92 173.032 1067.47 169.184 1105.86 170.894C1184.12 174.208 1259.71 197.506 1333.48 219.416" stroke="#D56960" stroke-miterlimit="10"/>
<path d="M-258.827 580.76C-237.23 489.061 -152.659 417.028 -59.1067 406.34C-53.0124 405.592 -46.8113 405.164 -40.6101 405.058C47.5961 402.599 129.067 449.197 202.305 498.787C204.871 500.497 207.33 502.207 209.896 503.917C285.058 555.431 361.183 611.861 450.672 626.609C570.526 646.168 695.083 577.019 756.881 475.061C764.9 461.915 771.957 448.342 778.692 434.555C812.05 366.476 834.61 294.121 892.665 242.608C921.64 216.958 956.922 199.644 994.878 189.277C1031.55 179.231 1070.79 175.704 1109.06 177.2C1186.9 180.299 1262.06 201.995 1334.77 221.233" stroke="#CD6E67" stroke-miterlimit="10"/>
<path d="M-253.053 579.478C-230.601 488.954 -145.923 419.058 -53.2262 409.119C-47.132 408.478 -41.0377 408.05 -34.9435 407.943C52.5144 406.019 133.343 451.869 206.367 500.283C208.933 501.993 211.393 503.596 213.959 505.306C289.014 555.644 365.139 610.258 453.666 623.296C572.557 640.61 694.335 570.179 756.988 470.144C765.114 457.213 772.384 443.96 779.334 430.494C813.761 364.018 838.138 294.656 896.515 245.493C925.596 221.019 960.878 204.667 998.62 194.834C1035.08 185.429 1074.1 182.009 1112.06 183.399C1189.47 186.284 1264.31 206.484 1335.94 222.836" stroke="#C4726D" stroke-miterlimit="10"/>
<path d="M-247.387 578.195C-224.079 488.848 -139.401 420.982 -47.3459 411.791C-41.3585 411.149 -35.2643 410.829 -29.17 410.722C57.5394 409.333 137.727 454.434 210.537 501.779C213.103 503.383 215.562 505.092 218.021 506.696C292.863 555.751 368.988 608.654 456.766 619.983C574.588 634.946 693.587 563.339 757.309 465.121C765.541 452.51 773.026 439.471 780.189 426.433C815.685 361.666 841.88 295.19 900.577 248.486C929.872 225.187 965.048 209.69 1002.47 200.499C1038.71 191.628 1077.42 188.529 1115.16 189.811C1192.14 192.483 1266.55 211.079 1337.12 224.759" stroke="#BC7773" stroke-miterlimit="10"/>
<path d="M-241.613 576.913C-217.45 488.741 -132.772 422.906 -41.4654 414.569C-35.4781 414.035 -29.4907 413.714 -23.5034 413.608C62.4576 412.753 142.004 457.106 214.6 503.276C217.059 504.879 219.625 506.482 222.084 508.085C296.712 555.965 372.944 606.944 459.867 616.67C576.727 629.388 692.838 556.499 757.523 460.205C765.862 447.808 773.56 435.089 780.938 422.371C817.503 359.315 845.515 295.831 904.533 251.371C933.935 229.248 969.111 214.606 1006.32 206.056C1042.35 197.72 1080.84 194.834 1118.37 196.01C1194.92 198.468 1269.01 215.461 1338.51 226.469" stroke="#B37B7A" stroke-miterlimit="10"/>
<path d="M-235.84 575.63C-210.821 488.634 -126.143 424.936 -35.585 417.348C-29.7046 416.814 -23.7173 416.6 -17.73 416.6C67.4826 416.279 146.494 459.884 218.77 504.986C221.229 506.589 223.795 508.085 226.254 509.688C300.668 556.286 377.006 605.555 463.074 613.571C578.972 624.044 692.304 549.873 757.843 455.503C766.29 443.319 774.095 430.921 781.686 418.524C819.321 357.071 849.15 296.579 908.489 254.471C938.105 233.523 973.067 219.843 1010.17 211.828C1045.98 204.026 1084.26 201.354 1121.47 202.529C1197.7 204.774 1271.26 220.164 1339.68 228.393" stroke="#AB7F80" stroke-miterlimit="10"/>
<path d="M-230.173 574.348C-204.3 488.527 -119.622 426.86 -29.7046 420.02C-23.8242 419.593 -17.9438 419.379 -11.9564 419.379C72.5077 419.593 150.878 462.556 222.939 506.375C225.399 507.871 227.965 509.368 230.424 510.971C304.731 556.393 380.962 603.845 466.282 610.151C581.11 618.273 691.662 542.926 758.164 450.373C766.718 438.403 774.736 426.326 782.541 414.249C821.245 354.506 852.893 296.9 912.552 257.249C942.382 237.478 977.237 224.653 1014.02 217.171C1049.62 209.904 1087.57 207.553 1124.67 208.514C1200.48 210.438 1273.61 224.332 1341.07 229.889" stroke="#A28486" stroke-miterlimit="10"/>
<path d="M-224.4 573.065C-197.671 488.42 -112.886 428.891 -23.8241 422.799C-17.9437 422.371 -12.1702 422.264 -6.28978 422.264C77.426 423.013 155.154 465.228 227.002 507.871C229.461 509.368 232.027 510.864 234.487 512.36C308.58 556.499 384.918 602.135 469.276 606.838C583.142 612.716 690.914 536.086 758.271 445.456C766.932 433.807 775.164 421.944 783.183 410.188C823.063 352.154 856.421 297.541 916.508 260.135C946.445 241.539 981.299 229.676 1017.86 222.729C1053.25 216.103 1091 213.858 1127.78 214.713C1203.15 216.423 1275.96 228.714 1342.25 231.493" stroke="#9A888D" stroke-miterlimit="10"/>
<path d="M-218.626 571.783C-191.042 488.206 -106.257 430.814 -17.9438 425.471C-12.1703 425.15 -6.39676 424.936 -0.516344 425.043C82.451 426.326 159.538 467.793 231.172 509.368C233.631 510.757 236.09 512.253 238.656 513.643C312.536 556.606 388.981 600.425 472.483 603.418C585.387 607.051 690.272 529.139 758.592 440.433C767.359 428.998 775.806 417.455 784.038 406.126C824.987 349.696 860.163 298.076 920.571 263.127C950.721 245.707 985.469 234.699 1021.82 228.393C1057 222.301 1094.42 220.378 1130.98 221.126C1205.93 222.622 1278.31 233.416 1343.64 233.416" stroke="#918C93" stroke-miterlimit="10"/>
<path d="M-212.96 570.393C-184.52 488.099 -99.735 432.738 -12.0633 428.142C-6.28981 427.822 -0.623218 427.715 5.15028 427.929C87.3692 429.639 163.815 470.465 235.235 510.864C237.694 512.253 240.153 513.643 242.612 515.032C316.278 556.713 392.723 598.929 475.477 600.104C587.312 601.708 689.417 522.299 758.699 435.517C767.68 424.295 776.126 413.073 784.68 402.065C826.698 347.345 863.584 298.61 924.42 266.013C954.677 249.768 989.318 239.722 1025.46 233.951C1060.42 228.393 1097.62 226.683 1133.98 227.324C1208.5 228.607 1280.56 237.798 1344.71 235.019" stroke="#899199" stroke-miterlimit="10"/>
<path d="M-207.186 569.111C-177.891 487.993 -93.1062 434.662 -6.18295 430.921C-0.516364 430.708 5.25714 430.601 10.9237 430.814C92.3942 433.059 168.198 473.137 239.405 512.467C241.864 513.856 244.323 515.139 246.782 516.528C320.234 557.034 396.786 597.433 478.684 596.898C589.557 596.15 688.882 515.566 759.02 430.601C768.108 419.699 776.768 408.691 785.428 398.004C828.515 344.994 867.219 299.251 928.376 269.006C958.847 253.936 993.381 244.745 1029.3 239.615C1064.05 234.592 1101.05 233.203 1137.08 233.737C1211.17 234.806 1282.8 242.394 1345.99 236.943" stroke="#8095A0" stroke-miterlimit="10"/>
<path d="M-201.413 567.828C-171.262 487.886 -86.4773 436.693 -0.302464 433.7C5.36412 433.486 11.0307 433.486 16.6973 433.7C97.4194 436.479 172.582 475.916 243.574 513.963C246.034 515.246 248.493 516.635 250.952 517.918C324.297 557.248 400.849 595.829 481.785 593.585C591.695 590.593 688.134 508.726 759.234 425.684C768.428 414.997 777.302 404.309 786.176 393.943C830.333 342.536 870.855 299.786 932.332 271.891C963.017 257.998 997.444 249.768 1033.15 245.173C1067.79 240.791 1104.36 239.508 1140.28 239.936C1213.95 240.791 1285.26 246.776 1347.28 238.546" stroke="#789AA6" stroke-miterlimit="10"/>
<path d="M-195.746 566.546C-164.74 487.779 -79.8485 438.616 5.57787 436.372C11.1375 436.265 16.8041 436.265 22.3638 436.479C102.337 439.792 176.965 478.481 247.637 515.353C250.096 516.635 252.555 517.918 255.014 519.2C328.145 557.248 404.698 594.013 484.885 590.165C593.726 584.928 687.385 501.779 759.447 420.661C768.749 410.188 777.837 399.821 786.925 389.774C832.151 340.078 874.49 300.213 936.287 274.777C967.079 262.059 1001.51 254.684 1036.9 250.73C1071.32 246.883 1107.67 245.921 1143.28 246.241C1216.52 246.883 1287.4 251.264 1348.45 240.363" stroke="#6F9EAC" stroke-miterlimit="10"/>
<path d="M-189.973 565.263C-158.111 487.672 -73.2197 440.54 11.4583 439.151C17.018 439.044 22.5777 439.151 28.1373 439.364C107.363 443.212 181.349 481.153 251.807 516.956C254.266 518.238 256.725 519.414 259.184 520.696C332.101 557.568 408.761 592.516 488.093 586.959C595.972 579.478 686.851 494.939 759.875 415.852C769.284 405.592 778.479 395.546 787.887 385.927C834.182 337.94 878.339 300.961 940.564 277.876C971.57 266.334 1005.89 259.921 1041.07 256.394C1075.28 253.081 1111.31 252.333 1146.7 252.547C1219.51 252.974 1290.07 255.753 1350.06 242.073" stroke="#66A2B3" stroke-miterlimit="10"/>
<path d="M-184.199 563.981C-151.483 487.565 -66.5909 442.571 17.3387 441.823C22.7914 441.823 28.3511 441.929 33.8039 442.25C112.281 446.632 185.626 483.824 255.87 518.452C258.329 519.628 260.788 520.803 263.14 522.086C335.843 557.675 412.61 590.913 491.086 583.646C598.003 573.813 685.996 488.099 759.982 410.829C769.497 400.889 778.906 391.057 788.422 381.759C835.786 335.375 881.76 301.496 944.306 280.762C975.526 270.395 1009.63 264.838 1044.7 261.952C1078.7 259.173 1114.52 258.639 1149.69 258.746C1222.08 258.959 1292.21 260.242 1351.12 243.783" stroke="#5EA7B9" stroke-miterlimit="10"/>
<path d="M-178.533 562.698C-144.961 487.458 -60.0689 444.494 23.2192 444.601C28.6719 444.601 34.1246 444.815 39.5774 445.136C117.306 450.052 190.009 486.496 260.04 520.055C262.499 521.231 264.851 522.406 267.31 523.475C339.906 557.889 416.566 589.203 494.294 580.333C600.141 568.256 685.354 481.259 760.303 405.913C769.925 396.187 779.548 386.675 789.277 377.698C837.71 333.024 885.502 302.03 948.369 283.648C979.696 274.456 1013.8 269.754 1048.55 267.509C1082.34 265.372 1117.94 265.051 1152.79 265.051C1224.75 265.051 1294.46 264.731 1352.41 245.6" stroke="#55ABC0" stroke-miterlimit="10"/>
<path d="M-172.759 561.416C-138.225 487.351 -53.3331 446.418 29.0996 447.273C34.4455 447.38 39.8982 447.594 45.2441 447.914C122.224 453.365 194.286 489.061 264.102 521.444C266.562 522.513 268.914 523.689 271.373 524.757C343.755 557.889 420.522 587.493 497.288 576.912C602.173 562.484 684.606 474.312 760.41 400.889C770.139 391.377 779.975 382.186 789.919 373.529C839.421 330.459 889.03 302.457 952.218 286.533C983.759 278.517 1017.76 274.777 1052.29 273.067C1085.86 271.464 1121.15 271.357 1155.79 271.25C1227.42 271.036 1296.7 269.112 1353.48 247.203" stroke="#4DB0C6" stroke-miterlimit="10"/>
<path d="M-166.986 560.133C-131.596 487.244 -46.7044 448.449 34.98 450.052C40.3258 450.159 45.6716 450.373 51.0175 450.8C127.356 456.785 198.669 491.84 268.272 522.941C270.731 524.009 273.083 525.078 275.542 526.147C347.711 558.103 424.584 585.89 500.495 573.599C604.418 556.927 683.964 467.473 760.73 395.973C770.674 386.782 780.51 377.804 790.774 369.468C841.346 328.108 892.772 303.099 956.281 289.419C987.928 282.579 1021.93 279.693 1056.25 278.624C1089.61 277.556 1124.67 277.769 1159.1 277.556C1230.31 277.021 1299.16 273.601 1354.97 249.02" stroke="#44B4CC" stroke-miterlimit="10"/>
<path d="M-161.319 558.851C-125.074 487.138 -40.1824 450.373 40.8605 452.831C46.2063 452.938 51.4452 453.258 56.791 453.793C132.381 460.205 203.053 494.619 272.442 524.651C274.901 525.719 277.253 526.681 279.712 527.75C351.667 558.423 428.54 584.394 503.703 570.5C606.557 551.476 683.323 460.846 761.051 391.164C771.101 382.186 781.151 373.529 791.522 365.621C843.163 325.97 896.408 303.847 960.237 292.518C992.098 286.854 1025.88 284.93 1059.99 284.396C1093.13 283.861 1127.88 284.289 1162.1 283.968C1232.87 283.22 1301.41 278.197 1356.04 250.837" stroke="#3CB8D3" stroke-miterlimit="10"/>
<path d="M-155.546 557.568C-118.445 487.031 -33.5536 452.403 46.7408 455.503C51.9797 455.716 57.2186 456.037 62.4576 456.571C137.299 463.518 207.33 497.184 276.505 526.04C278.857 527.002 281.316 528.071 283.668 529.033C355.409 558.53 432.389 582.47 506.696 567.187C608.588 545.705 682.574 454.006 761.158 386.248C771.315 377.484 781.579 369.148 792.164 361.559C844.874 323.512 899.936 304.381 964.193 295.511C996.268 291.022 1029.95 289.953 1063.84 290.06C1096.77 290.06 1131.3 290.808 1165.3 290.381C1235.65 289.419 1303.76 282.793 1357.43 252.761" stroke="#33BDD9" stroke-miterlimit="10"/>
<path d="M-149.879 556.286C-111.923 486.924 -27.0317 454.327 52.5143 458.281C57.7532 458.495 62.8853 458.923 68.1242 459.457C142.217 466.938 211.713 499.856 280.568 527.536C282.92 528.498 285.379 529.46 287.731 530.422C359.365 558.744 436.238 580.867 509.69 563.874C610.512 540.148 681.719 447.166 761.265 381.331C771.529 372.888 782.007 364.766 792.805 357.498C846.584 321.161 903.464 305.023 968.042 298.396C1000.22 295.083 1033.9 294.976 1067.58 295.511C1100.3 296.152 1134.62 297.007 1168.3 296.473C1238.22 295.297 1306.01 287.174 1358.5 254.257" stroke="#2BC1DF" stroke-miterlimit="10"/>
<path d="M-144.105 555.003C-105.295 486.817 -20.296 456.358 58.5016 461.06C63.6336 461.381 68.7656 461.808 73.8976 462.342C147.242 470.358 216.097 502.527 284.737 529.139C287.089 530.101 289.549 530.956 291.901 531.918C363.321 558.958 440.301 579.371 512.897 560.667C612.758 534.697 681.184 440.433 761.586 376.415C771.956 368.186 782.541 360.384 793.661 353.437C848.509 318.809 907.206 305.557 972.105 301.389C1004.5 299.358 1038.07 299.999 1071.43 301.175C1103.93 302.351 1137.93 303.526 1171.4 302.778C1240.89 301.389 1308.25 291.663 1359.78 256.074" stroke="#22C5E6" stroke-miterlimit="10"/>
<path d="M-138.332 553.614C-98.6658 486.603 -13.6671 458.174 64.3821 463.625C69.5141 463.946 74.5392 464.48 79.6712 465.014C152.268 473.564 220.48 504.986 288.907 530.422C291.259 531.277 293.611 532.132 296.071 533.094C367.277 558.958 444.257 577.447 516.105 557.141C614.896 528.819 680.543 433.379 761.906 371.285C772.384 363.269 783.183 355.895 794.409 349.162C850.433 316.138 910.841 305.878 976.06 304.061C1008.67 303.206 1042.03 304.809 1075.28 306.519C1107.57 308.229 1141.35 309.618 1174.6 308.87C1243.67 307.267 1310.71 295.938 1361.07 257.57" stroke="#1ACAEC" stroke-miterlimit="10"/>
<path d="M-132.665 552.331C-92.1439 486.496 -7.14512 460.098 70.1556 466.404C75.1807 466.831 80.2058 467.366 85.3378 468.007C157.186 477.091 224.757 507.871 292.97 532.132C295.322 532.987 297.674 533.842 300.133 534.59C371.126 559.171 448.213 575.951 519.206 553.934C617.034 523.368 679.794 426.646 762.227 366.476C772.812 358.674 783.824 351.62 795.264 345.314C852.358 314 914.584 306.733 980.123 307.267C1012.84 307.588 1046.2 310.046 1079.24 312.397C1111.31 314.641 1144.78 316.244 1177.81 315.389C1246.45 313.573 1313.06 300.641 1362.46 259.601" stroke="#11CEF2" stroke-miterlimit="10"/>
<path d="M-126.892 551.049C-85.5151 486.389 -0.51635 462.129 76.1429 469.076C81.168 469.503 86.1931 470.144 91.1112 470.786C162.211 480.404 229.141 510.436 297.247 533.521C299.599 534.269 301.951 535.124 304.303 535.873C375.189 559.278 452.276 574.241 522.306 550.514C619.173 517.704 679.153 419.699 762.441 361.453C773.133 353.971 784.359 347.131 796.013 341.146C854.175 311.542 918.219 307.16 984.079 310.046C1017.01 311.542 1050.26 314.962 1082.98 317.848C1114.84 320.733 1148.09 322.55 1180.91 321.588C1249.13 319.558 1315.41 305.023 1363.63 261.204" stroke="#09D3F9" stroke-miterlimit="10"/>
<path d="M-121.118 549.766C-78.8862 486.283 6.21946 464.053 82.0234 471.854C157.827 479.656 228.82 511.612 301.309 535.018C373.906 558.53 453.88 573.493 525.407 547.201C633.606 507.658 692.518 386.354 796.761 337.085C885.502 295.19 989.211 312.931 1086.83 323.405C1184.44 333.879 1294.99 331.741 1364.92 262.914" stroke="#00D7FF" stroke-miterlimit="10"/>
</g>
<mask id="mask4_201_3" style="mask-type:luminance" maskUnits="userSpaceOnUse" x="-42" y="-28" width="1283" height="855">
<path d="M1241 -28H-42V827H1241V-28Z" fill="white"/>
</mask>
<g mask="url(#mask4_201_3)">
<path d="M996.161 621.8C997.342 621.8 998.299 620.843 998.299 619.662C998.299 618.482 997.342 617.525 996.161 617.525C994.98 617.525 994.023 618.482 994.023 619.662C994.023 620.843 994.98 621.8 996.161 621.8Z" fill="#B8D9D9"/>
<path d="M971.57 621.8C972.751 621.8 973.708 620.843 973.708 619.662C973.708 618.482 972.751 617.525 971.57 617.525C970.389 617.525 969.432 618.482 969.432 619.662C969.432 620.843 970.389 621.8 971.57 621.8Z" fill="#B8D9D9"/>
<path d="M946.979 621.8C948.16 621.8 949.118 620.843 949.118 619.662C949.118 618.482 948.16 617.525 946.979 617.525C945.798 617.525 944.841 618.482 944.841 619.662C944.841 620.843 945.798 621.8 946.979 621.8Z" fill="#B8D9D9"/>
<path d="M922.388 621.8C923.569 621.8 924.527 620.843 924.527 619.662C924.527 618.482 923.569 617.525 922.388 617.525C921.207 617.525 920.25 618.482 920.25 619.662C920.25 620.843 921.207 621.8 922.388 621.8Z" fill="#B8D9D9"/>
<path d="M897.798 621.8C898.978 621.8 899.936 620.843 899.936 619.662C899.936 618.482 898.978 617.525 897.798 617.525C896.617 617.525 895.659 618.482 895.659 619.662C895.659 620.843 896.617 621.8 897.798 621.8Z" fill="#B8D9D9"/>
<path d="M996.161 595.081C997.342 595.081 998.299 594.124 998.299 592.944C998.299 591.763 997.342 590.806 996.161 590.806C994.98 590.806 994.023 591.763 994.023 592.944C994.023 594.124 994.98 595.081 996.161 595.081Z" fill="#B8D9D9"/>
<path d="M971.57 595.081C972.751 595.081 973.708 594.124 973.708 592.944C973.708 591.763 972.751 590.806 971.57 590.806C970.389 590.806 969.432 591.763 969.432 592.944C969.432 594.124 970.389 595.081 971.57 595.081Z" fill="#B8D9D9"/>
<path d="M946.979 595.081C948.16 595.081 949.118 594.124 949.118 592.944C949.118 591.763 948.16 590.806 946.979 590.806C945.798 590.806 944.841 591.763 944.841 592.944C944.841 594.124 945.798 595.081 946.979 595.081Z" fill="#B8D9D9"/>
<path d="M922.388 595.081C923.569 595.081 924.527 594.124 924.527 592.944C924.527 591.763 923.569 590.806 922.388 590.806C921.207 590.806 920.25 591.763 920.25 592.944C920.25 594.124 921.207 595.081 922.388 595.081Z" fill="#B8D9D9"/>
<path d="M897.798 595.081C898.978 595.081 899.936 594.124 899.936 592.944C899.936 591.763 898.978 590.806 897.798 590.806C896.617 590.806 895.659 591.763 895.659 592.944C895.659 594.124 896.617 595.081 897.798 595.081Z" fill="#B8D9D9"/>
<path d="M996.161 568.362C997.342 568.362 998.299 567.406 998.299 566.225C998.299 565.044 997.342 564.087 996.161 564.087C994.98 564.087 994.023 565.044 994.023 566.225C994.023 567.406 994.98 568.362 996.161 568.362Z" fill="#B8D9D9"/>
<path d="M971.57 568.362C972.751 568.362 973.708 567.406 973.708 566.225C973.708 565.044 972.751 564.087 971.57 564.087C970.389 564.087 969.432 565.044 969.432 566.225C969.432 567.406 970.389 568.362 971.57 568.362Z" fill="#B8D9D9"/>
<path d="M946.979 568.362C948.16 568.362 949.118 567.406 949.118 566.225C949.118 565.044 948.16 564.087 946.979 564.087C945.798 564.087 944.841 565.044 944.841 566.225C944.841 567.406 945.798 568.362 946.979 568.362Z" fill="#B8D9D9"/>
<path d="M922.388 568.362C923.569 568.362 924.527 567.406 924.527 566.225C924.527 565.044 923.569 564.087 922.388 564.087C921.207 564.087 920.25 565.044 920.25 566.225C920.25 567.406 921.207 568.362 922.388 568.362Z" fill="#B8D9D9"/>
<path d="M897.798 568.362C898.978 568.362 899.936 567.406 899.936 566.225C899.936 565.044 898.978 564.087 897.798 564.087C896.617 564.087 895.659 565.044 895.659 566.225C895.659 567.406 896.617 568.362 897.798 568.362Z" fill="#B8D9D9"/>
<path d="M996.161 541.644C997.342 541.644 998.299 540.687 998.299 539.506C998.299 538.326 997.342 537.369 996.161 537.369C994.98 537.369 994.023 538.326 994.023 539.506C994.023 540.687 994.98 541.644 996.161 541.644Z" fill="#B8D9D9"/>
<path d="M971.57 541.644C972.751 541.644 973.708 540.687 973.708 539.506C973.708 538.326 972.751 537.369 971.57 537.369C970.389 537.369 969.432 538.326 969.432 539.506C969.432 540.687 970.389 541.644 971.57 541.644Z" fill="#B8D9D9"/>
<path d="M946.979 541.644C948.16 541.644 949.118 540.687 949.118 539.506C949.118 538.326 948.16 537.369 946.979 537.369C945.798 537.369 944.841 538.326 944.841 539.506C944.841 540.687 945.798 541.644 946.979 541.644Z" fill="#B8D9D9"/>
<path d="M922.388 541.644C923.569 541.644 924.527 540.687 924.527 539.506C924.527 538.326 923.569 537.369 922.388 537.369C921.207 537.369 920.25 538.326 920.25 539.506C920.25 540.687 921.207 541.644 922.388 541.644Z" fill="#B8D9D9"/>
<path d="M897.798 541.644C898.978 541.644 899.936 540.687 899.936 539.506C899.936 538.326 898.978 537.369 897.798 537.369C896.617 537.369 895.659 538.326 895.659 539.506C895.659 540.687 896.617 541.644 897.798 541.644Z" fill="#B8D9D9"/>
<path d="M996.161 514.925C997.342 514.925 998.299 513.968 998.299 512.787C998.299 511.607 997.342 510.65 996.161 510.65C994.98 510.65 994.023 511.607 994.023 512.787C994.023 513.968 994.98 514.925 996.161 514.925Z" fill="#B8D9D9"/>
<path d="M971.57 514.925C972.751 514.925 973.708 513.968 973.708 512.787C973.708 511.607 972.751 510.65 971.57 510.65C970.389 510.65 969.432 511.607 969.432 512.787C969.432 513.968 970.389 514.925 971.57 514.925Z" fill="#B8D9D9"/>
<path d="M946.979 514.925C948.16 514.925 949.118 513.968 949.118 512.787C949.118 511.607 948.16 510.65 946.979 510.65C945.798 510.65 944.841 511.607 944.841 512.787C944.841 513.968 945.798 514.925 946.979 514.925Z" fill="#B8D9D9"/>
<path d="M922.388 514.925C923.569 514.925 924.527 513.968 924.527 512.787C924.527 511.607 923.569 510.65 922.388 510.65C921.207 510.65 920.25 511.607 920.25 512.787C920.25 513.968 921.207 514.925 922.388 514.925Z" fill="#B8D9D9"/>
<path d="M897.798 514.925C898.978 514.925 899.936 513.968 899.936 512.787C899.936 511.607 898.978 510.65 897.798 510.65C896.617 510.65 895.659 511.607 895.659 512.787C895.659 513.968 896.617 514.925 897.798 514.925Z" fill="#B8D9D9"/>
<path d="M996.161 488.206C997.342 488.206 998.299 487.249 998.299 486.069C998.299 484.888 997.342 483.931 996.161 483.931C994.98 483.931 994.023 484.888 994.023 486.069C994.023 487.249 994.98 488.206 996.161 488.206Z" fill="#B8D9D9"/>
<path d="M971.57 488.206C972.751 488.206 973.708 487.249 973.708 486.069C973.708 484.888 972.751 483.931 971.57 483.931C970.389 483.931 969.432 484.888 969.432 486.069C969.432 487.249 970.389 488.206 971.57 488.206Z" fill="#B8D9D9"/>
<path d="M946.979 488.206C948.16 488.206 949.118 487.249 949.118 486.069C949.118 484.888 948.16 483.931 946.979 483.931C945.798 483.931 944.841 484.888 944.841 486.069C944.841 487.249 945.798 488.206 946.979 488.206Z" fill="#B8D9D9"/>
<path d="M922.388 488.206C923.569 488.206 924.527 487.249 924.527 486.069C924.527 484.888 923.569 483.931 922.388 483.931C921.207 483.931 920.25 484.888 920.25 486.069C920.25 487.249 921.207 488.206 922.388 488.206Z" fill="#B8D9D9"/>
<path d="M897.798 488.206C898.978 488.206 899.936 487.249 899.936 486.069C899.936 484.888 898.978 483.931 897.798 483.931C896.617 483.931 895.659 484.888 895.659 486.069C895.659 487.249 896.617 488.206 897.798 488.206Z" fill="#B8D9D9"/>
<path d="M996.161 461.487C997.342 461.487 998.299 460.531 998.299 459.35C998.299 458.169 997.342 457.212 996.161 457.212C994.98 457.212 994.023 458.169 994.023 459.35C994.023 460.531 994.98 461.487 996.161 461.487Z" fill="#B8D9D9"/>
<path d="M971.57 461.487C972.751 461.487 973.708 460.531 973.708 459.35C973.708 458.169 972.751 457.212 971.57 457.212C970.389 457.212 969.432 458.169 969.432 459.35C969.432 460.531 970.389 461.487 971.57 461.487Z" fill="#B8D9D9"/>
<path d="M946.979 461.487C948.16 461.487 949.118 460.531 949.118 459.35C949.118 458.169 948.16 457.212 946.979 457.212C945.798 457.212 944.841 458.169 944.841 459.35C944.841 460.531 945.798 461.487 946.979 461.487Z" fill="#B8D9D9"/>
<path d="M922.388 461.487C923.569 461.487 924.527 460.531 924.527 459.35C924.527 458.169 923.569 457.212 922.388 457.212C921.207 457.212 920.25 458.169 920.25 459.35C920.25 460.531 921.207 461.487 922.388 461.487Z" fill="#B8D9D9"/>
<path d="M897.798 461.487C898.978 461.487 899.936 460.531 899.936 459.35C899.936 458.169 898.978 457.212 897.798 457.212C896.617 457.212 895.659 458.169 895.659 459.35C895.659 460.531 896.617 461.487 897.798 461.487Z" fill="#B8D9D9"/>
<path d="M996.161 434.769C997.342 434.769 998.299 433.812 998.299 432.631C998.299 431.451 997.342 430.494 996.161 430.494C994.98 430.494 994.023 431.451 994.023 432.631C994.023 433.812 994.98 434.769 996.161 434.769Z" fill="#B8D9D9"/>
<path d="M971.57 434.769C972.751 434.769 973.708 433.812 973.708 432.631C973.708 431.451 972.751 430.494 971.57 430.494C970.389 430.494 969.432 431.451 969.432 432.631C969.432 433.812 970.389 434.769 971.57 434.769Z" fill="#B8D9D9"/>
<path d="M946.979 434.769C948.16 434.769 949.118 433.812 949.118 432.631C949.118 431.451 948.16 430.494 946.979 430.494C945.798 430.494 944.841 431.451 944.841 432.631C944.841 433.812 945.798 434.769 946.979 434.769Z" fill="#B8D9D9"/>
<path d="M922.388 434.769C923.569 434.769 924.527 433.812 924.527 432.631C924.527 431.451 923.569 430.494 922.388 430.494C921.207 430.494 920.25 431.451 920.25 432.631C920.25 433.812 921.207 434.769 922.388 434.769Z" fill="#B8D9D9"/>
<path d="M897.798 434.769C898.978 434.769 899.936 433.812 899.936 432.631C899.936 431.451 898.978 430.494 897.798 430.494C896.617 430.494 895.659 431.451 895.659 432.631C895.659 433.812 896.617 434.769 897.798 434.769Z" fill="#B8D9D9"/>
<path d="M996.161 408.05C997.342 408.05 998.299 407.093 998.299 405.912C998.299 404.732 997.342 403.775 996.161 403.775C994.98 403.775 994.023 404.732 994.023 405.912C994.023 407.093 994.98 408.05 996.161 408.05Z" fill="#B8D9D9"/>
<path d="M971.57 408.05C972.751 408.05 973.708 407.093 973.708 405.912C973.708 404.732 972.751 403.775 971.57 403.775C970.389 403.775 969.432 404.732 969.432 405.912C969.432 407.093 970.389 408.05 971.57 408.05Z" fill="#B8D9D9"/>
<path d="M946.979 408.05C948.16 408.05 949.118 407.093 949.118 405.912C949.118 404.732 948.16 403.775 946.979 403.775C945.798 403.775 944.841 404.732 944.841 405.912C944.841 407.093 945.798 408.05 946.979 408.05Z" fill="#B8D9D9"/>
<path d="M922.388 408.05C923.569 408.05 924.527 407.093 924.527 405.912C924.527 404.732 923.569 403.775 922.388 403.775C921.207 403.775 920.25 404.732 920.25 405.912C920.25 407.093 921.207 408.05 922.388 408.05Z" fill="#B8D9D9"/>
<path d="M897.798 408.05C898.978 408.05 899.936 407.093 899.936 405.912C899.936 404.732 898.978 403.775 897.798 403.775C896.617 403.775 895.659 404.732 895.659 405.912C895.659 407.093 896.617 408.05 897.798 408.05Z" fill="#B8D9D9"/>
<path d="M996.161 381.331C997.342 381.331 998.299 380.374 998.299 379.194C998.299 378.013 997.342 377.056 996.161 377.056C994.98 377.056 994.023 378.013 994.023 379.194C994.023 380.374 994.98 381.331 996.161 381.331Z" fill="#B8D9D9"/>
<path d="M971.57 381.331C972.751 381.331 973.708 380.374 973.708 379.194C973.708 378.013 972.751 377.056 971.57 377.056C970.389 377.056 969.432 378.013 969.432 379.194C969.432 380.374 970.389 381.331 971.57 381.331Z" fill="#B8D9D9"/>
<path d="M946.979 381.331C948.16 381.331 949.118 380.374 949.118 379.194C949.118 378.013 948.16 377.056 946.979 377.056C945.798 377.056 944.841 378.013 944.841 379.194C944.841 380.374 945.798 381.331 946.979 381.331Z" fill="#B8D9D9"/>
<path d="M922.388 381.331C923.569 381.331 924.527 380.374 924.527 379.194C924.527 378.013 923.569 377.056 922.388 377.056C921.207 377.056 920.25 378.013 920.25 379.194C920.25 380.374 921.207 381.331 922.388 381.331Z" fill="#B8D9D9"/>
<path d="M897.798 381.331C898.978 381.331 899.936 380.374 899.936 379.194C899.936 378.013 898.978 377.056 897.798 377.056C896.617 377.056 895.659 378.013 895.659 379.194C895.659 380.374 896.617 381.331 897.798 381.331Z" fill="#B8D9D9"/>
<path d="M996.161 354.612C997.342 354.612 998.299 353.656 998.299 352.475C998.299 351.294 997.342 350.337 996.161 350.337C994.98 350.337 994.022 351.294 994.022 352.475C994.022 353.656 994.98 354.612 996.161 354.612Z" fill="#B8D9D9"/>
<path d="M971.57 354.612C972.751 354.612 973.708 353.656 973.708 352.475C973.708 351.294 972.751 350.337 971.57 350.337C970.389 350.337 969.432 351.294 969.432 352.475C969.432 353.656 970.389 354.612 971.57 354.612Z" fill="#B8D9D9"/>
<path d="M946.979 354.612C948.16 354.612 949.117 353.656 949.117 352.475C949.117 351.294 948.16 350.337 946.979 350.337C945.798 350.337 944.841 351.294 944.841 352.475C944.841 353.656 945.798 354.612 946.979 354.612Z" fill="#B8D9D9"/>
<path d="M922.388 354.612C923.569 354.612 924.527 353.656 924.527 352.475C924.527 351.294 923.569 350.337 922.388 350.337C921.207 350.337 920.25 351.294 920.25 352.475C920.25 353.656 921.207 354.612 922.388 354.612Z" fill="#B8D9D9"/>
<path d="M897.798 354.612C898.978 354.612 899.936 353.656 899.936 352.475C899.936 351.294 898.978 350.337 897.798 350.337C896.617 350.337 895.659 351.294 895.659 352.475C895.659 353.656 896.617 354.612 897.798 354.612Z" fill="#B8D9D9"/>
</g>
</svg>
